ISO-10303-21;
HEADER;
FILE_DESCRIPTION(('FreeCAD Model'),'2;1');
FILE_NAME('Open CASCADE Shape Model','2026-01-19T13:59:36',(''),(''),
  'Open CASCADE STEP processor 7.8','FreeCAD','Unknown');
FILE_SCHEMA(('AUTOMOTIVE_DESIGN { 1 0 10303 214 1 1 1 1 }'));
ENDSEC;
DATA;
#1 = APPLICATION_PROTOCOL_DEFINITION('international standard',
  'automotive_design',2000,#2);
#2 = APPLICATION_CONTEXT(
  'core data for automotive mechanical design processes');
#3 = SHAPE_DEFINITION_REPRESENTATION(#4,#10);
#4 = PRODUCT_DEFINITION_SHAPE('','',#5);
#5 = PRODUCT_DEFINITION('design','',#6,#9);
#6 = PRODUCT_DEFINITION_FORMATION('','',#7);
#7 = PRODUCT('Gauges_Stand','Gauges_Stand','',(#8));
#8 = PRODUCT_CONTEXT('',#2,'mechanical');
#9 = PRODUCT_DEFINITION_CONTEXT('part definition',#2,'design');
#10 = ADVANCED_BREP_SHAPE_REPRESENTATION('',(#11,#15),#870);
#11 = AXIS2_PLACEMENT_3D('',#12,#13,#14);
#12 = CARTESIAN_POINT('',(0.,0.,0.));
#13 = DIRECTION('',(0.,0.,1.));
#14 = DIRECTION('',(1.,0.,-0.));
#15 = MANIFOLD_SOLID_BREP('',#16);
#16 = CLOSED_SHELL('',(#17,#95,#126,#172,#223,#247,#307,#338,#439,#464,
    #489,#511,#526,#538,#601,#670,#695,#720,#737,#760,#790,#806,#823,
    #835,#854));
#17 = ADVANCED_FACE('',(#18,#68,#79),#90,.T.);
#18 = FACE_BOUND('',#19,.T.);
#19 = EDGE_LOOP('',(#20,#30,#38,#46,#54,#62));
#20 = ORIENTED_EDGE('',*,*,#21,.F.);
#21 = EDGE_CURVE('',#22,#24,#26,.T.);
#22 = VERTEX_POINT('',#23);
#23 = CARTESIAN_POINT('',(-0.91278839112,-455.8160314838,182.73059577944
    ));
#24 = VERTEX_POINT('',#25);
#25 = CARTESIAN_POINT('',(-0.91278839112,-432.3417892456,315.85963901472
    ));
#26 = LINE('',#27,#28);
#27 = CARTESIAN_POINT('',(-0.91278839112,-455.8160314838,182.73059577944
    ));
#28 = VECTOR('',#29,1.);
#29 = DIRECTION('',(0.,0.173648177667,0.984807753012));
#30 = ORIENTED_EDGE('',*,*,#31,.T.);
#31 = EDGE_CURVE('',#22,#32,#34,.T.);
#32 = VERTEX_POINT('',#33);
#33 = CARTESIAN_POINT('',(-0.91278839112,-369.3417892456,182.73059577944
    ));
#34 = LINE('',#35,#36);
#35 = CARTESIAN_POINT('',(-0.91278839112,-455.8160314838,182.73059577944
    ));
#36 = VECTOR('',#37,1.);
#37 = DIRECTION('',(0.,1.,3.3E-16));
#38 = ORIENTED_EDGE('',*,*,#39,.F.);
#39 = EDGE_CURVE('',#40,#32,#42,.T.);
#40 = VERTEX_POINT('',#41);
#41 = CARTESIAN_POINT('',(-0.91278839112,-369.3417892456,185.73059577944
    ));
#42 = LINE('',#43,#44);
#43 = CARTESIAN_POINT('',(-0.91278839112,-369.3417892456,187.73059577944
    ));
#44 = VECTOR('',#45,1.);
#45 = DIRECTION('',(0.,0.,-1.));
#46 = ORIENTED_EDGE('',*,*,#47,.F.);
#47 = EDGE_CURVE('',#48,#40,#50,.T.);
#48 = VERTEX_POINT('',#49);
#49 = CARTESIAN_POINT('',(-0.91278839112,-422.3417892456,185.73059577944
    ));
#50 = LINE('',#51,#52);
#51 = CARTESIAN_POINT('',(-0.91278839112,-422.3417892456,185.73059577944
    ));
#52 = VECTOR('',#53,1.);
#53 = DIRECTION('',(0.,1.,0.));
#54 = ORIENTED_EDGE('',*,*,#55,.F.);
#55 = EDGE_CURVE('',#56,#48,#58,.T.);
#56 = VERTEX_POINT('',#57);
#57 = CARTESIAN_POINT('',(-0.91278839112,-422.3417892456,315.85963901472
    ));
#58 = LINE('',#59,#60);
#59 = CARTESIAN_POINT('',(-0.91278839112,-422.3417892456,187.73059577944
    ));
#60 = VECTOR('',#61,1.);
#61 = DIRECTION('',(-0.,-2.3E-16,-1.));
#62 = ORIENTED_EDGE('',*,*,#63,.F.);
#63 = EDGE_CURVE('',#24,#56,#64,.T.);
#64 = LINE('',#65,#66);
#65 = CARTESIAN_POINT('',(-0.91278839112,-432.3417892456,315.85963901472
    ));
#66 = VECTOR('',#67,1.);
#67 = DIRECTION('',(0.,1.,0.));
#68 = FACE_BOUND('',#69,.T.);
#69 = EDGE_LOOP('',(#70));
#70 = ORIENTED_EDGE('',*,*,#71,.T.);
#71 = EDGE_CURVE('',#72,#72,#74,.T.);
#72 = VERTEX_POINT('',#73);
#73 = CARTESIAN_POINT('',(-0.91278839112,-431.5917892456,187.73059577941
    ));
#74 = CIRCLE('',#75,2.25);
#75 = AXIS2_PLACEMENT_3D('',#76,#77,#78);
#76 = CARTESIAN_POINT('',(-0.91278839112,-429.3417892456,187.73059577941
    ));
#77 = DIRECTION('',(-1.,0.,0.));
#78 = DIRECTION('',(0.,-1.,0.));
#79 = FACE_BOUND('',#80,.T.);
#80 = EDGE_LOOP('',(#81));
#81 = ORIENTED_EDGE('',*,*,#82,.T.);
#82 = EDGE_CURVE('',#83,#83,#85,.T.);
#83 = VERTEX_POINT('',#84);
#84 = CARTESIAN_POINT('',(-0.91278839112,-431.5917892456,260.3878164638)
  );
#85 = CIRCLE('',#86,2.25);
#86 = AXIS2_PLACEMENT_3D('',#87,#88,#89);
#87 = CARTESIAN_POINT('',(-0.91278839112,-429.3417892456,260.3878164638)
  );
#88 = DIRECTION('',(-1.,0.,0.));
#89 = DIRECTION('',(0.,-1.,0.));
#90 = PLANE('',#91);
#91 = AXIS2_PLACEMENT_3D('',#92,#93,#94);
#92 = CARTESIAN_POINT('',(-0.91278839112,-423.7889125345,229.02288712053
    ));
#93 = DIRECTION('',(1.,0.,0.));
#94 = DIRECTION('',(0.,0.,1.));
#95 = ADVANCED_FACE('',(#96),#121,.T.);
#96 = FACE_BOUND('',#97,.T.);
#97 = EDGE_LOOP('',(#98,#108,#114,#115));
#98 = ORIENTED_EDGE('',*,*,#99,.T.);
#99 = EDGE_CURVE('',#100,#102,#104,.T.);
#100 = VERTEX_POINT('',#101);
#101 = CARTESIAN_POINT('',(-12.74,-422.3417892456,315.85963901472));
#102 = VERTEX_POINT('',#103);
#103 = CARTESIAN_POINT('',(-12.74,-432.3417892456,315.85963901472));
#104 = LINE('',#105,#106);
#105 = CARTESIAN_POINT('',(-12.74,-442.0544230327,315.85963901472));
#106 = VECTOR('',#107,1.);
#107 = DIRECTION('',(0.,-1.,0.));
#108 = ORIENTED_EDGE('',*,*,#109,.T.);
#109 = EDGE_CURVE('',#102,#24,#110,.T.);
#110 = LINE('',#111,#112);
#111 = CARTESIAN_POINT('',(-1.91278839112,-432.3417892456,
    315.85963901472));
#112 = VECTOR('',#113,1.);
#113 = DIRECTION('',(1.,0.,0.));
#114 = ORIENTED_EDGE('',*,*,#63,.T.);
#115 = ORIENTED_EDGE('',*,*,#116,.F.);
#116 = EDGE_CURVE('',#100,#56,#117,.T.);
#117 = LINE('',#118,#119);
#118 = CARTESIAN_POINT('',(-1.91278839112,-422.3417892456,
    315.85963901472));
#119 = VECTOR('',#120,1.);
#120 = DIRECTION('',(1.,0.,0.));
#121 = PLANE('',#122);
#122 = AXIS2_PLACEMENT_3D('',#123,#124,#125);
#123 = CARTESIAN_POINT('',(-6.82639419556,-427.3417892456,
    315.85963901472));
#124 = DIRECTION('',(0.,0.,1.));
#125 = DIRECTION('',(1.,0.,0.));
#126 = ADVANCED_FACE('',(#127,#145,#156),#167,.T.);
#127 = FACE_BOUND('',#128,.T.);
#128 = EDGE_LOOP('',(#129,#137,#138,#139));
#129 = ORIENTED_EDGE('',*,*,#130,.F.);
#130 = EDGE_CURVE('',#100,#131,#133,.T.);
#131 = VERTEX_POINT('',#132);
#132 = CARTESIAN_POINT('',(-12.74,-422.3417892456,185.73059577944));
#133 = LINE('',#134,#135);
#134 = CARTESIAN_POINT('',(-12.74,-422.3417892456,187.73059577944));
#135 = VECTOR('',#136,1.);
#136 = DIRECTION('',(-0.,-2.3E-16,-1.));
#137 = ORIENTED_EDGE('',*,*,#116,.T.);
#138 = ORIENTED_EDGE('',*,*,#55,.T.);
#139 = ORIENTED_EDGE('',*,*,#140,.F.);
#140 = EDGE_CURVE('',#131,#48,#141,.T.);
#141 = LINE('',#142,#143);
#142 = CARTESIAN_POINT('',(-1.91278839112,-422.3417892456,
    185.73059577944));
#143 = VECTOR('',#144,1.);
#144 = DIRECTION('',(1.,0.,0.));
#145 = FACE_BOUND('',#146,.T.);
#146 = EDGE_LOOP('',(#147));
#147 = ORIENTED_EDGE('',*,*,#148,.T.);
#148 = EDGE_CURVE('',#149,#149,#151,.T.);
#149 = VERTEX_POINT('',#150);
#150 = CARTESIAN_POINT('',(-4.985,-422.3417892456,211.96713918691));
#151 = ELLIPSE('',#152,2.284709876743,2.25);
#152 = AXIS2_PLACEMENT_3D('',#153,#154,#155);
#153 = CARTESIAN_POINT('',(-7.235,-422.3417892456,211.96713918691));
#154 = DIRECTION('',(0.,-1.,0.));
#155 = DIRECTION('',(0.,0.,1.));
#156 = FACE_BOUND('',#157,.T.);
#157 = EDGE_LOOP('',(#158));
#158 = ORIENTED_EDGE('',*,*,#159,.T.);
#159 = EDGE_CURVE('',#160,#160,#162,.T.);
#160 = VERTEX_POINT('',#161);
#161 = CARTESIAN_POINT('',(-4.985,-422.3417892456,299.0135700642));
#162 = ELLIPSE('',#163,2.284709876743,2.25);
#163 = AXIS2_PLACEMENT_3D('',#164,#165,#166);
#164 = CARTESIAN_POINT('',(-7.235,-422.3417892456,299.0135700642));
#165 = DIRECTION('',(0.,-1.,0.));
#166 = DIRECTION('',(0.,0.,1.));
#167 = PLANE('',#168);
#168 = AXIS2_PLACEMENT_3D('',#169,#170,#171);
#169 = CARTESIAN_POINT('',(-6.82639419556,-422.3417892456,
    250.79511739708));
#170 = DIRECTION('',(4.46E-15,1.,-4.E-16));
#171 = DIRECTION('',(1.,-4.46E-15,-1.291046833559E-46));
#172 = ADVANCED_FACE('',(#173),#218,.F.);
#173 = FACE_BOUND('',#174,.T.);
#174 = EDGE_LOOP('',(#175,#186,#195,#204,#211,#216,#217));
#175 = ORIENTED_EDGE('',*,*,#176,.F.);
#176 = EDGE_CURVE('',#177,#179,#181,.T.);
#177 = VERTEX_POINT('',#178);
#178 = CARTESIAN_POINT('',(-12.74,-427.0917892456,187.73059577944));
#179 = VERTEX_POINT('',#180);
#180 = CARTESIAN_POINT('',(-12.74,-431.5917892456,187.73059577942));
#181 = CIRCLE('',#182,2.25);
#182 = AXIS2_PLACEMENT_3D('',#183,#184,#185);
#183 = CARTESIAN_POINT('',(-12.74,-429.3417892456,187.73059577941));
#184 = DIRECTION('',(1.,0.,0.));
#185 = DIRECTION('',(0.,-1.,0.));
#186 = ORIENTED_EDGE('',*,*,#187,.F.);
#187 = EDGE_CURVE('',#188,#177,#190,.T.);
#188 = VERTEX_POINT('',#189);
#189 = CARTESIAN_POINT('',(-12.74,-428.3110128391,185.73059577944));
#190 = CIRCLE('',#191,2.25);
#191 = AXIS2_PLACEMENT_3D('',#192,#193,#194);
#192 = CARTESIAN_POINT('',(-12.74,-429.3417892456,187.73059577941));
#193 = DIRECTION('',(1.,0.,0.));
#194 = DIRECTION('',(0.,-1.,0.));
#195 = ORIENTED_EDGE('',*,*,#196,.F.);
#196 = EDGE_CURVE('',#197,#188,#199,.T.);
#197 = VERTEX_POINT('',#198);
#198 = CARTESIAN_POINT('',(-12.74,-430.372565652,185.73059577944));
#199 = CIRCLE('',#200,2.25);
#200 = AXIS2_PLACEMENT_3D('',#201,#202,#203);
#201 = CARTESIAN_POINT('',(-12.74,-429.3417892456,187.73059577941));
#202 = DIRECTION('',(1.,0.,0.));
#203 = DIRECTION('',(0.,-1.,0.));
#204 = ORIENTED_EDGE('',*,*,#205,.F.);
#205 = EDGE_CURVE('',#179,#197,#206,.T.);
#206 = CIRCLE('',#207,2.25);
#207 = AXIS2_PLACEMENT_3D('',#208,#209,#210);
#208 = CARTESIAN_POINT('',(-12.74,-429.3417892456,187.73059577941));
#209 = DIRECTION('',(1.,0.,0.));
#210 = DIRECTION('',(0.,-1.,0.));
#211 = ORIENTED_EDGE('',*,*,#212,.T.);
#212 = EDGE_CURVE('',#179,#72,#213,.T.);
#213 = B_SPLINE_CURVE_WITH_KNOTS('',1,(#214,#215),.UNSPECIFIED.,.F.,.F.,
  (2,2),(-10.82721160888,1.),.PIECEWISE_BEZIER_KNOTS.);
#214 = CARTESIAN_POINT('',(-12.74,-431.5917892456,187.73059577941));
#215 = CARTESIAN_POINT('',(-0.91278839112,-431.5917892456,
    187.73059577941));
#216 = ORIENTED_EDGE('',*,*,#71,.F.);
#217 = ORIENTED_EDGE('',*,*,#212,.F.);
#218 = CYLINDRICAL_SURFACE('',#219,2.25);
#219 = AXIS2_PLACEMENT_3D('',#220,#221,#222);
#220 = CARTESIAN_POINT('',(-1.91278839112,-429.3417892456,
    187.73059577941));
#221 = DIRECTION('',(1.,0.,0.));
#222 = DIRECTION('',(0.,-1.,0.));
#223 = ADVANCED_FACE('',(#224),#242,.F.);
#224 = FACE_BOUND('',#225,.T.);
#225 = EDGE_LOOP('',(#226,#227,#234,#241));
#226 = ORIENTED_EDGE('',*,*,#82,.F.);
#227 = ORIENTED_EDGE('',*,*,#228,.F.);
#228 = EDGE_CURVE('',#229,#83,#231,.T.);
#229 = VERTEX_POINT('',#230);
#230 = CARTESIAN_POINT('',(-12.74,-431.5917892456,260.3878164638));
#231 = B_SPLINE_CURVE_WITH_KNOTS('',1,(#232,#233),.UNSPECIFIED.,.F.,.F.,
  (2,2),(-10.82721160888,1.),.PIECEWISE_BEZIER_KNOTS.);
#232 = CARTESIAN_POINT('',(-12.74,-431.5917892456,260.3878164638));
#233 = CARTESIAN_POINT('',(-0.91278839112,-431.5917892456,260.3878164638
    ));
#234 = ORIENTED_EDGE('',*,*,#235,.F.);
#235 = EDGE_CURVE('',#229,#229,#236,.T.);
#236 = CIRCLE('',#237,2.25);
#237 = AXIS2_PLACEMENT_3D('',#238,#239,#240);
#238 = CARTESIAN_POINT('',(-12.74,-429.3417892456,260.3878164638));
#239 = DIRECTION('',(1.,0.,0.));
#240 = DIRECTION('',(0.,-1.,0.));
#241 = ORIENTED_EDGE('',*,*,#228,.T.);
#242 = CYLINDRICAL_SURFACE('',#243,2.25);
#243 = AXIS2_PLACEMENT_3D('',#244,#245,#246);
#244 = CARTESIAN_POINT('',(-1.91278839112,-429.3417892456,260.3878164638
    ));
#245 = DIRECTION('',(1.,0.,0.));
#246 = DIRECTION('',(0.,-1.,0.));
#247 = ADVANCED_FACE('',(#248,#299),#302,.T.);
#248 = FACE_BOUND('',#249,.T.);
#249 = EDGE_LOOP('',(#250,#260,#266,#267,#268,#274,#275,#276,#277,#285,
    #293));
#250 = ORIENTED_EDGE('',*,*,#251,.F.);
#251 = EDGE_CURVE('',#252,#254,#256,.T.);
#252 = VERTEX_POINT('',#253);
#253 = CARTESIAN_POINT('',(-12.74,-451.9407049974,204.70866442683));
#254 = VERTEX_POINT('',#255);
#255 = CARTESIAN_POINT('',(-12.74,-448.9862817384,204.18771989383));
#256 = LINE('',#257,#258);
#257 = CARTESIAN_POINT('',(-12.74,-451.9407049974,204.70866442683));
#258 = VECTOR('',#259,1.);
#259 = DIRECTION('',(0.,0.984807753012,-0.173648177667));
#260 = ORIENTED_EDGE('',*,*,#261,.T.);
#261 = EDGE_CURVE('',#252,#102,#262,.T.);
#262 = LINE('',#263,#264);
#263 = CARTESIAN_POINT('',(-12.74,-451.7670568198,205.69347217984));
#264 = VECTOR('',#265,1.);
#265 = DIRECTION('',(0.,0.173648177667,0.984807753012));
#266 = ORIENTED_EDGE('',*,*,#99,.F.);
#267 = ORIENTED_EDGE('',*,*,#130,.T.);
#268 = ORIENTED_EDGE('',*,*,#269,.T.);
#269 = EDGE_CURVE('',#131,#188,#270,.T.);
#270 = LINE('',#271,#272);
#271 = CARTESIAN_POINT('',(-12.74,-422.3417892456,185.73059577944));
#272 = VECTOR('',#273,1.);
#273 = DIRECTION('',(0.,-1.,2.2E-16));
#274 = ORIENTED_EDGE('',*,*,#187,.T.);
#275 = ORIENTED_EDGE('',*,*,#176,.T.);
#276 = ORIENTED_EDGE('',*,*,#205,.T.);
#277 = ORIENTED_EDGE('',*,*,#278,.T.);
#278 = EDGE_CURVE('',#197,#279,#281,.T.);
#279 = VERTEX_POINT('',#280);
#280 = CARTESIAN_POINT('',(-12.74,-451.8881167446,185.73059577944));
#281 = LINE('',#282,#283);
#282 = CARTESIAN_POINT('',(-12.74,-422.3417892456,185.73059577944));
#283 = VECTOR('',#284,1.);
#284 = DIRECTION('',(0.,-1.,2.2E-16));
#285 = ORIENTED_EDGE('',*,*,#286,.F.);
#286 = EDGE_CURVE('',#287,#279,#289,.T.);
#287 = VERTEX_POINT('',#288);
#288 = CARTESIAN_POINT('',(-12.74,-451.8881167446,187.73059577944));
#289 = LINE('',#290,#291);
#290 = CARTESIAN_POINT('',(-12.74,-451.8881167446,187.73059577944));
#291 = VECTOR('',#292,1.);
#292 = DIRECTION('',(-0.,-2.3E-16,-1.));
#293 = ORIENTED_EDGE('',*,*,#294,.T.);
#294 = EDGE_CURVE('',#287,#254,#295,.T.);
#295 = LINE('',#296,#297);
#296 = CARTESIAN_POINT('',(-12.74,-451.9799733213,187.20965124643));
#297 = VECTOR('',#298,1.);
#298 = DIRECTION('',(0.,0.173648177667,0.984807753012));
#299 = FACE_BOUND('',#300,.T.);
#300 = EDGE_LOOP('',(#301));
#301 = ORIENTED_EDGE('',*,*,#235,.T.);
#302 = PLANE('',#303);
#303 = AXIS2_PLACEMENT_3D('',#304,#305,#306);
#304 = CARTESIAN_POINT('',(-12.74,-433.1793066361,244.48138759067));
#305 = DIRECTION('',(-1.,-0.,-0.));
#306 = DIRECTION('',(0.,0.,-1.));
#307 = ADVANCED_FACE('',(#308),#333,.T.);
#308 = FACE_BOUND('',#309,.T.);
#309 = EDGE_LOOP('',(#310,#311,#319,#327));
#310 = ORIENTED_EDGE('',*,*,#251,.T.);
#311 = ORIENTED_EDGE('',*,*,#312,.T.);
#312 = EDGE_CURVE('',#254,#313,#315,.T.);
#313 = VERTEX_POINT('',#314);
#314 = CARTESIAN_POINT('',(-138.14,-448.9862817384,204.18771989383));
#315 = LINE('',#316,#317);
#316 = CARTESIAN_POINT('',(-12.74,-448.9862817384,204.18771989383));
#317 = VECTOR('',#318,1.);
#318 = DIRECTION('',(-1.,0.,0.));
#319 = ORIENTED_EDGE('',*,*,#320,.F.);
#320 = EDGE_CURVE('',#321,#313,#323,.T.);
#321 = VERTEX_POINT('',#322);
#322 = CARTESIAN_POINT('',(-138.14,-451.9407049974,204.70866442683));
#323 = LINE('',#324,#325);
#324 = CARTESIAN_POINT('',(-138.14,-451.9407049974,204.70866442683));
#325 = VECTOR('',#326,1.);
#326 = DIRECTION('',(0.,0.984807753012,-0.173648177667));
#327 = ORIENTED_EDGE('',*,*,#328,.F.);
#328 = EDGE_CURVE('',#252,#321,#329,.T.);
#329 = LINE('',#330,#331);
#330 = CARTESIAN_POINT('',(-12.74,-451.9407049974,204.70866442683));
#331 = VECTOR('',#332,1.);
#332 = DIRECTION('',(-1.,0.,0.));
#333 = PLANE('',#334);
#334 = AXIS2_PLACEMENT_3D('',#335,#336,#337);
#335 = CARTESIAN_POINT('',(-12.74,-451.9407049974,204.70866442683));
#336 = DIRECTION('',(0.,0.173648177667,0.984807753012));
#337 = DIRECTION('',(-1.,0.,0.));
#338 = ADVANCED_FACE('',(#339,#423),#434,.T.);
#339 = FACE_BOUND('',#340,.T.);
#340 = EDGE_LOOP('',(#341,#352,#361,#369,#377,#385,#391,#392,#400,#408,
    #416));
#341 = ORIENTED_EDGE('',*,*,#342,.F.);
#342 = EDGE_CURVE('',#343,#345,#347,.T.);
#343 = VERTEX_POINT('',#344);
#344 = CARTESIAN_POINT('',(-138.14,-427.0917892456,187.73059577944));
#345 = VERTEX_POINT('',#346);
#346 = CARTESIAN_POINT('',(-138.14,-431.5917892456,187.73059577942));
#347 = CIRCLE('',#348,2.25);
#348 = AXIS2_PLACEMENT_3D('',#349,#350,#351);
#349 = CARTESIAN_POINT('',(-138.14,-429.3417892456,187.73059577941));
#350 = DIRECTION('',(1.,0.,0.));
#351 = DIRECTION('',(0.,-1.,0.));
#352 = ORIENTED_EDGE('',*,*,#353,.F.);
#353 = EDGE_CURVE('',#354,#343,#356,.T.);
#354 = VERTEX_POINT('',#355);
#355 = CARTESIAN_POINT('',(-138.14,-428.3110128391,185.73059577944));
#356 = CIRCLE('',#357,2.25);
#357 = AXIS2_PLACEMENT_3D('',#358,#359,#360);
#358 = CARTESIAN_POINT('',(-138.14,-429.3417892456,187.73059577941));
#359 = DIRECTION('',(1.,0.,0.));
#360 = DIRECTION('',(0.,-1.,0.));
#361 = ORIENTED_EDGE('',*,*,#362,.F.);
#362 = EDGE_CURVE('',#363,#354,#365,.T.);
#363 = VERTEX_POINT('',#364);
#364 = CARTESIAN_POINT('',(-138.14,-422.3417892456,185.73059577944));
#365 = LINE('',#366,#367);
#366 = CARTESIAN_POINT('',(-138.14,-422.3417892456,185.73059577944));
#367 = VECTOR('',#368,1.);
#368 = DIRECTION('',(0.,-1.,2.2E-16));
#369 = ORIENTED_EDGE('',*,*,#370,.T.);
#370 = EDGE_CURVE('',#363,#371,#373,.T.);
#371 = VERTEX_POINT('',#372);
#372 = CARTESIAN_POINT('',(-138.14,-422.3417892456,315.85963901472));
#373 = LINE('',#374,#375);
#374 = CARTESIAN_POINT('',(-138.14,-422.3417892456,317.82154469051));
#375 = VECTOR('',#376,1.);
#376 = DIRECTION('',(0.,0.,1.));
#377 = ORIENTED_EDGE('',*,*,#378,.F.);
#378 = EDGE_CURVE('',#379,#371,#381,.T.);
#379 = VERTEX_POINT('',#380);
#380 = CARTESIAN_POINT('',(-138.14,-432.3417892456,315.85963901472));
#381 = LINE('',#382,#383);
#382 = CARTESIAN_POINT('',(-138.14,-431.9958523413,315.85963901472));
#383 = VECTOR('',#384,1.);
#384 = DIRECTION('',(0.,1.,0.));
#385 = ORIENTED_EDGE('',*,*,#386,.F.);
#386 = EDGE_CURVE('',#321,#379,#387,.T.);
#387 = LINE('',#388,#389);
#388 = CARTESIAN_POINT('',(-138.14,-454.8838203495,188.01742783743));
#389 = VECTOR('',#390,1.);
#390 = DIRECTION('',(0.,0.173648177667,0.984807753012));
#391 = ORIENTED_EDGE('',*,*,#320,.T.);
#392 = ORIENTED_EDGE('',*,*,#393,.T.);
#393 = EDGE_CURVE('',#313,#394,#396,.T.);
#394 = VERTEX_POINT('',#395);
#395 = CARTESIAN_POINT('',(-138.14,-451.8881167446,187.73059577944));
#396 = LINE('',#397,#398);
#397 = CARTESIAN_POINT('',(-138.14,-448.9862817384,204.18771989383));
#398 = VECTOR('',#399,1.);
#399 = DIRECTION('',(0.,-0.173648177667,-0.984807753012));
#400 = ORIENTED_EDGE('',*,*,#401,.T.);
#401 = EDGE_CURVE('',#394,#402,#404,.T.);
#402 = VERTEX_POINT('',#403);
#403 = CARTESIAN_POINT('',(-138.14,-451.8881167446,185.73059577944));
#404 = LINE('',#405,#406);
#405 = CARTESIAN_POINT('',(-138.14,-451.8881167446,187.73059577944));
#406 = VECTOR('',#407,1.);
#407 = DIRECTION('',(-0.,-2.3E-16,-1.));
#408 = ORIENTED_EDGE('',*,*,#409,.F.);
#409 = EDGE_CURVE('',#410,#402,#412,.T.);
#410 = VERTEX_POINT('',#411);
#411 = CARTESIAN_POINT('',(-138.14,-430.372565652,185.73059577944));
#412 = LINE('',#413,#414);
#413 = CARTESIAN_POINT('',(-138.14,-422.3417892456,185.73059577944));
#414 = VECTOR('',#415,1.);
#415 = DIRECTION('',(0.,-1.,2.2E-16));
#416 = ORIENTED_EDGE('',*,*,#417,.F.);
#417 = EDGE_CURVE('',#345,#410,#418,.T.);
#418 = CIRCLE('',#419,2.25);
#419 = AXIS2_PLACEMENT_3D('',#420,#421,#422);
#420 = CARTESIAN_POINT('',(-138.14,-429.3417892456,187.73059577941));
#421 = DIRECTION('',(1.,0.,0.));
#422 = DIRECTION('',(0.,-1.,0.));
#423 = FACE_BOUND('',#424,.T.);
#424 = EDGE_LOOP('',(#425));
#425 = ORIENTED_EDGE('',*,*,#426,.F.);
#426 = EDGE_CURVE('',#427,#427,#429,.T.);
#427 = VERTEX_POINT('',#428);
#428 = CARTESIAN_POINT('',(-138.14,-431.5917892456,260.3878164638));
#429 = CIRCLE('',#430,2.25);
#430 = AXIS2_PLACEMENT_3D('',#431,#432,#433);
#431 = CARTESIAN_POINT('',(-138.14,-429.3417892456,260.3878164638));
#432 = DIRECTION('',(1.,0.,0.));
#433 = DIRECTION('',(0.,-1.,0.));
#434 = PLANE('',#435);
#435 = AXIS2_PLACEMENT_3D('',#436,#437,#438);
#436 = CARTESIAN_POINT('',(-138.14,-433.1793066361,244.48138759067));
#437 = DIRECTION('',(1.,-9.8E-16,0.));
#438 = DIRECTION('',(9.8E-16,1.,0.));
#439 = ADVANCED_FACE('',(#440),#459,.F.);
#440 = FACE_BOUND('',#441,.F.);
#441 = EDGE_LOOP('',(#442,#451,#457,#458));
#442 = ORIENTED_EDGE('',*,*,#443,.F.);
#443 = EDGE_CURVE('',#444,#444,#446,.T.);
#444 = VERTEX_POINT('',#445);
#445 = CARTESIAN_POINT('',(-4.985,-434.9210998079,301.23164191506));
#446 = CIRCLE('',#447,2.25);
#447 = AXIS2_PLACEMENT_3D('',#448,#449,#450);
#448 = CARTESIAN_POINT('',(-7.235,-434.9210998079,301.23164191506));
#449 = DIRECTION('',(0.,-0.984807753012,0.173648177667));
#450 = DIRECTION('',(1.,0.,0.));
#451 = ORIENTED_EDGE('',*,*,#452,.T.);
#452 = EDGE_CURVE('',#444,#160,#453,.T.);
#453 = LINE('',#454,#455);
#454 = CARTESIAN_POINT('',(-4.985,-434.9210998079,301.23164191506));
#455 = VECTOR('',#456,1.);
#456 = DIRECTION('',(0.,0.984807753012,-0.173648177667));
#457 = ORIENTED_EDGE('',*,*,#159,.T.);
#458 = ORIENTED_EDGE('',*,*,#452,.F.);
#459 = CYLINDRICAL_SURFACE('',#460,2.25);
#460 = AXIS2_PLACEMENT_3D('',#461,#462,#463);
#461 = CARTESIAN_POINT('',(-7.235,-434.9210998079,301.23164191506));
#462 = DIRECTION('',(0.,-0.984807753012,0.173648177667));
#463 = DIRECTION('',(1.,0.,0.));
#464 = ADVANCED_FACE('',(#465),#484,.F.);
#465 = FACE_BOUND('',#466,.F.);
#466 = EDGE_LOOP('',(#467,#476,#482,#483));
#467 = ORIENTED_EDGE('',*,*,#468,.F.);
#468 = EDGE_CURVE('',#469,#469,#471,.T.);
#469 = VERTEX_POINT('',#470);
#470 = CARTESIAN_POINT('',(-4.985,-449.8069161903,216.80998209584));
#471 = CIRCLE('',#472,2.25);
#472 = AXIS2_PLACEMENT_3D('',#473,#474,#475);
#473 = CARTESIAN_POINT('',(-7.235,-449.8069161903,216.80998209584));
#474 = DIRECTION('',(0.,-0.984807753012,0.173648177667));
#475 = DIRECTION('',(1.,0.,0.));
#476 = ORIENTED_EDGE('',*,*,#477,.T.);
#477 = EDGE_CURVE('',#469,#149,#478,.T.);
#478 = LINE('',#479,#480);
#479 = CARTESIAN_POINT('',(-4.985,-449.8069161903,216.80998209584));
#480 = VECTOR('',#481,1.);
#481 = DIRECTION('',(0.,0.984807753012,-0.173648177667));
#482 = ORIENTED_EDGE('',*,*,#148,.T.);
#483 = ORIENTED_EDGE('',*,*,#477,.F.);
#484 = CYLINDRICAL_SURFACE('',#485,2.25);
#485 = AXIS2_PLACEMENT_3D('',#486,#487,#488);
#486 = CARTESIAN_POINT('',(-7.235,-449.8069161903,216.80998209584));
#487 = DIRECTION('',(0.,-0.984807753012,0.173648177667));
#488 = DIRECTION('',(1.,0.,0.));
#489 = ADVANCED_FACE('',(#490),#506,.F.);
#490 = FACE_BOUND('',#491,.F.);
#491 = EDGE_LOOP('',(#492,#493,#499,#500));
#492 = ORIENTED_EDGE('',*,*,#401,.T.);
#493 = ORIENTED_EDGE('',*,*,#494,.T.);
#494 = EDGE_CURVE('',#402,#279,#495,.T.);
#495 = LINE('',#496,#497);
#496 = CARTESIAN_POINT('',(-44.09,-451.8881167446,185.73059577944));
#497 = VECTOR('',#498,1.);
#498 = DIRECTION('',(1.,0.,0.));
#499 = ORIENTED_EDGE('',*,*,#286,.F.);
#500 = ORIENTED_EDGE('',*,*,#501,.F.);
#501 = EDGE_CURVE('',#394,#287,#502,.T.);
#502 = LINE('',#503,#504);
#503 = CARTESIAN_POINT('',(-44.09,-451.8881167446,187.73059577944));
#504 = VECTOR('',#505,1.);
#505 = DIRECTION('',(1.,0.,0.));
#506 = PLANE('',#507);
#507 = AXIS2_PLACEMENT_3D('',#508,#509,#510);
#508 = CARTESIAN_POINT('',(-138.14,-451.8881167446,187.73059577944));
#509 = DIRECTION('',(0.,-1.,2.3E-16));
#510 = DIRECTION('',(1.,0.,0.));
#511 = ADVANCED_FACE('',(#512),#521,.T.);
#512 = FACE_BOUND('',#513,.T.);
#513 = EDGE_LOOP('',(#514,#520));
#514 = ORIENTED_EDGE('',*,*,#515,.T.);
#515 = EDGE_CURVE('',#188,#197,#516,.T.);
#516 = LINE('',#517,#518);
#517 = CARTESIAN_POINT('',(-12.74,-422.3417892456,185.73059577944));
#518 = VECTOR('',#519,1.);
#519 = DIRECTION('',(0.,-1.,2.2E-16));
#520 = ORIENTED_EDGE('',*,*,#196,.T.);
#521 = PLANE('',#522);
#522 = AXIS2_PLACEMENT_3D('',#523,#524,#525);
#523 = CARTESIAN_POINT('',(-12.74,-431.5917892456,187.73059577944));
#524 = DIRECTION('',(1.,0.,0.));
#525 = DIRECTION('',(0.,1.,0.));
#526 = ADVANCED_FACE('',(#527),#533,.T.);
#527 = FACE_BOUND('',#528,.T.);
#528 = EDGE_LOOP('',(#529,#530,#531,#532));
#529 = ORIENTED_EDGE('',*,*,#501,.F.);
#530 = ORIENTED_EDGE('',*,*,#393,.F.);
#531 = ORIENTED_EDGE('',*,*,#312,.F.);
#532 = ORIENTED_EDGE('',*,*,#294,.F.);
#533 = PLANE('',#534);
#534 = AXIS2_PLACEMENT_3D('',#535,#536,#537);
#535 = CARTESIAN_POINT('',(-75.44,-450.4831275298,195.69868557013));
#536 = DIRECTION('',(0.,0.984807753012,-0.173648177667));
#537 = DIRECTION('',(0.,0.173648177667,0.984807753012));
#538 = ADVANCED_FACE('',(#539,#568,#579,#590,#593),#596,.T.);
#539 = FACE_BOUND('',#540,.T.);
#540 = EDGE_LOOP('',(#541,#542,#543,#544,#545,#546,#554,#562));
#541 = ORIENTED_EDGE('',*,*,#21,.T.);
#542 = ORIENTED_EDGE('',*,*,#109,.F.);
#543 = ORIENTED_EDGE('',*,*,#261,.F.);
#544 = ORIENTED_EDGE('',*,*,#328,.T.);
#545 = ORIENTED_EDGE('',*,*,#386,.T.);
#546 = ORIENTED_EDGE('',*,*,#547,.T.);
#547 = EDGE_CURVE('',#379,#548,#550,.T.);
#548 = VERTEX_POINT('',#549);
#549 = CARTESIAN_POINT('',(-148.94,-432.3417892456,315.85963901472));
#550 = LINE('',#551,#552);
#551 = CARTESIAN_POINT('',(-1.91278839112,-432.3417892456,
    315.85963901472));
#552 = VECTOR('',#553,1.);
#553 = DIRECTION('',(-1.,0.,0.));
#554 = ORIENTED_EDGE('',*,*,#555,.T.);
#555 = EDGE_CURVE('',#548,#556,#558,.T.);
#556 = VERTEX_POINT('',#557);
#557 = CARTESIAN_POINT('',(-148.94,-455.8160314838,182.73059577944));
#558 = LINE('',#559,#560);
#559 = CARTESIAN_POINT('',(-148.94,-444.1280230646,249.01658543477));
#560 = VECTOR('',#561,1.);
#561 = DIRECTION('',(0.,-0.173648177667,-0.984807753012));
#562 = ORIENTED_EDGE('',*,*,#563,.F.);
#563 = EDGE_CURVE('',#22,#556,#564,.T.);
#564 = LINE('',#565,#566);
#565 = CARTESIAN_POINT('',(-148.44,-455.8160314838,182.73059577944));
#566 = VECTOR('',#567,1.);
#567 = DIRECTION('',(-1.,-0.,-0.));
#568 = FACE_BOUND('',#569,.T.);
#569 = EDGE_LOOP('',(#570));
#570 = ORIENTED_EDGE('',*,*,#571,.F.);
#571 = EDGE_CURVE('',#572,#572,#574,.T.);
#572 = VERTEX_POINT('',#573);
#573 = CARTESIAN_POINT('',(-141.395,-434.9210998079,301.23164191506));
#574 = CIRCLE('',#575,2.25);
#575 = AXIS2_PLACEMENT_3D('',#576,#577,#578);
#576 = CARTESIAN_POINT('',(-143.645,-434.9210998079,301.23164191506));
#577 = DIRECTION('',(0.,-0.984807753012,0.173648177667));
#578 = DIRECTION('',(1.,0.,0.));
#579 = FACE_BOUND('',#580,.T.);
#580 = EDGE_LOOP('',(#581));
#581 = ORIENTED_EDGE('',*,*,#582,.F.);
#582 = EDGE_CURVE('',#583,#583,#585,.T.);
#583 = VERTEX_POINT('',#584);
#584 = CARTESIAN_POINT('',(-141.395,-449.8069161903,216.80998209584));
#585 = CIRCLE('',#586,2.25);
#586 = AXIS2_PLACEMENT_3D('',#587,#588,#589);
#587 = CARTESIAN_POINT('',(-143.645,-449.8069161903,216.80998209584));
#588 = DIRECTION('',(0.,-0.984807753012,0.173648177667));
#589 = DIRECTION('',(1.,0.,0.));
#590 = FACE_BOUND('',#591,.T.);
#591 = EDGE_LOOP('',(#592));
#592 = ORIENTED_EDGE('',*,*,#443,.F.);
#593 = FACE_BOUND('',#594,.T.);
#594 = EDGE_LOOP('',(#595));
#595 = ORIENTED_EDGE('',*,*,#468,.F.);
#596 = PLANE('',#597);
#597 = AXIS2_PLACEMENT_3D('',#598,#599,#600);
#598 = CARTESIAN_POINT('',(-75.07275123097,-446.6293231478,
    234.83100774747));
#599 = DIRECTION('',(-3.7E-16,-0.984807753012,0.173648177667));
#600 = DIRECTION('',(-4.059041085228E-33,-0.173648177667,-0.984807753012
    ));
#601 = ADVANCED_FACE('',(#602,#643,#654),#665,.F.);
#602 = FACE_BOUND('',#603,.F.);
#603 = EDGE_LOOP('',(#604,#614,#620,#621,#629,#637));
#604 = ORIENTED_EDGE('',*,*,#605,.T.);
#605 = EDGE_CURVE('',#606,#608,#610,.T.);
#606 = VERTEX_POINT('',#607);
#607 = CARTESIAN_POINT('',(-148.94,-422.3417892456,185.73059577944));
#608 = VERTEX_POINT('',#609);
#609 = CARTESIAN_POINT('',(-148.94,-422.3417892456,315.85963901472));
#610 = LINE('',#611,#612);
#611 = CARTESIAN_POINT('',(-148.94,-422.3417892456,315.85963901472));
#612 = VECTOR('',#613,1.);
#613 = DIRECTION('',(0.,0.,1.));
#614 = ORIENTED_EDGE('',*,*,#615,.T.);
#615 = EDGE_CURVE('',#608,#548,#616,.T.);
#616 = LINE('',#617,#618);
#617 = CARTESIAN_POINT('',(-148.94,-433.9705351995,315.85963901472));
#618 = VECTOR('',#619,1.);
#619 = DIRECTION('',(0.,-1.,0.));
#620 = ORIENTED_EDGE('',*,*,#555,.T.);
#621 = ORIENTED_EDGE('',*,*,#622,.F.);
#622 = EDGE_CURVE('',#623,#556,#625,.T.);
#623 = VERTEX_POINT('',#624);
#624 = CARTESIAN_POINT('',(-148.94,-369.3417892456,182.73059577944));
#625 = LINE('',#626,#627);
#626 = CARTESIAN_POINT('',(-148.94,-445.7076563187,182.73059577944));
#627 = VECTOR('',#628,1.);
#628 = DIRECTION('',(0.,-1.,-3.3E-16));
#629 = ORIENTED_EDGE('',*,*,#630,.T.);
#630 = EDGE_CURVE('',#623,#631,#633,.T.);
#631 = VERTEX_POINT('',#632);
#632 = CARTESIAN_POINT('',(-148.94,-369.3417892456,185.73059577944));
#633 = LINE('',#634,#635);
#634 = CARTESIAN_POINT('',(-148.94,-369.3417892456,251.79511739708));
#635 = VECTOR('',#636,1.);
#636 = DIRECTION('',(0.,0.,1.));
#637 = ORIENTED_EDGE('',*,*,#638,.T.);
#638 = EDGE_CURVE('',#631,#606,#639,.T.);
#639 = LINE('',#640,#641);
#640 = CARTESIAN_POINT('',(-148.94,-428.9705351995,185.73059577944));
#641 = VECTOR('',#642,1.);
#642 = DIRECTION('',(0.,-1.,0.));
#643 = FACE_BOUND('',#644,.F.);
#644 = EDGE_LOOP('',(#645));
#645 = ORIENTED_EDGE('',*,*,#646,.F.);
#646 = EDGE_CURVE('',#647,#647,#649,.T.);
#647 = VERTEX_POINT('',#648);
#648 = CARTESIAN_POINT('',(-148.94,-431.5917892456,260.3878164638));
#649 = CIRCLE('',#650,2.25);
#650 = AXIS2_PLACEMENT_3D('',#651,#652,#653);
#651 = CARTESIAN_POINT('',(-148.94,-429.3417892456,260.3878164638));
#652 = DIRECTION('',(1.,0.,0.));
#653 = DIRECTION('',(0.,-1.,0.));
#654 = FACE_BOUND('',#655,.F.);
#655 = EDGE_LOOP('',(#656));
#656 = ORIENTED_EDGE('',*,*,#657,.F.);
#657 = EDGE_CURVE('',#658,#658,#660,.T.);
#658 = VERTEX_POINT('',#659);
#659 = CARTESIAN_POINT('',(-148.94,-431.5917892456,187.73059577941));
#660 = CIRCLE('',#661,2.25);
#661 = AXIS2_PLACEMENT_3D('',#662,#663,#664);
#662 = CARTESIAN_POINT('',(-148.94,-429.3417892456,187.73059577941));
#663 = DIRECTION('',(1.,0.,0.));
#664 = DIRECTION('',(0.,-1.,0.));
#665 = PLANE('',#666);
#666 = AXIS2_PLACEMENT_3D('',#667,#668,#669);
#667 = CARTESIAN_POINT('',(-148.94,-435.5992811535,315.85963901472));
#668 = DIRECTION('',(1.,0.,0.));
#669 = DIRECTION('',(0.,-0.173648177667,-0.984807753012));
#670 = ADVANCED_FACE('',(#671),#690,.F.);
#671 = FACE_BOUND('',#672,.F.);
#672 = EDGE_LOOP('',(#673,#674,#682,#689));
#673 = ORIENTED_EDGE('',*,*,#571,.F.);
#674 = ORIENTED_EDGE('',*,*,#675,.T.);
#675 = EDGE_CURVE('',#572,#676,#678,.T.);
#676 = VERTEX_POINT('',#677);
#677 = CARTESIAN_POINT('',(-141.395,-422.3417892456,299.0135700642));
#678 = LINE('',#679,#680);
#679 = CARTESIAN_POINT('',(-141.395,-434.9210998079,301.23164191506));
#680 = VECTOR('',#681,1.);
#681 = DIRECTION('',(0.,0.984807753012,-0.173648177667));
#682 = ORIENTED_EDGE('',*,*,#683,.T.);
#683 = EDGE_CURVE('',#676,#676,#684,.T.);
#684 = ELLIPSE('',#685,2.284709876743,2.25);
#685 = AXIS2_PLACEMENT_3D('',#686,#687,#688);
#686 = CARTESIAN_POINT('',(-143.645,-422.3417892456,299.0135700642));
#687 = DIRECTION('',(0.,-1.,0.));
#688 = DIRECTION('',(0.,0.,1.));
#689 = ORIENTED_EDGE('',*,*,#675,.F.);
#690 = CYLINDRICAL_SURFACE('',#691,2.25);
#691 = AXIS2_PLACEMENT_3D('',#692,#693,#694);
#692 = CARTESIAN_POINT('',(-143.645,-434.9210998079,301.23164191506));
#693 = DIRECTION('',(0.,-0.984807753012,0.173648177667));
#694 = DIRECTION('',(1.,0.,0.));
#695 = ADVANCED_FACE('',(#696),#715,.F.);
#696 = FACE_BOUND('',#697,.F.);
#697 = EDGE_LOOP('',(#698,#699,#707,#714));
#698 = ORIENTED_EDGE('',*,*,#582,.F.);
#699 = ORIENTED_EDGE('',*,*,#700,.T.);
#700 = EDGE_CURVE('',#583,#701,#703,.T.);
#701 = VERTEX_POINT('',#702);
#702 = CARTESIAN_POINT('',(-141.395,-422.3417892456,211.96713918691));
#703 = LINE('',#704,#705);
#704 = CARTESIAN_POINT('',(-141.395,-449.8069161903,216.80998209584));
#705 = VECTOR('',#706,1.);
#706 = DIRECTION('',(0.,0.984807753012,-0.173648177667));
#707 = ORIENTED_EDGE('',*,*,#708,.T.);
#708 = EDGE_CURVE('',#701,#701,#709,.T.);
#709 = ELLIPSE('',#710,2.284709876743,2.25);
#710 = AXIS2_PLACEMENT_3D('',#711,#712,#713);
#711 = CARTESIAN_POINT('',(-143.645,-422.3417892456,211.96713918691));
#712 = DIRECTION('',(0.,-1.,0.));
#713 = DIRECTION('',(0.,0.,1.));
#714 = ORIENTED_EDGE('',*,*,#700,.F.);
#715 = CYLINDRICAL_SURFACE('',#716,2.25);
#716 = AXIS2_PLACEMENT_3D('',#717,#718,#719);
#717 = CARTESIAN_POINT('',(-143.645,-449.8069161903,216.80998209584));
#718 = DIRECTION('',(0.,-0.984807753012,0.173648177667));
#719 = DIRECTION('',(1.,0.,0.));
#720 = ADVANCED_FACE('',(#721),#732,.T.);
#721 = FACE_BOUND('',#722,.T.);
#722 = EDGE_LOOP('',(#723,#724,#730,#731));
#723 = ORIENTED_EDGE('',*,*,#378,.T.);
#724 = ORIENTED_EDGE('',*,*,#725,.T.);
#725 = EDGE_CURVE('',#371,#608,#726,.T.);
#726 = LINE('',#727,#728);
#727 = CARTESIAN_POINT('',(-1.91278839112,-422.3417892456,
    315.85963901472));
#728 = VECTOR('',#729,1.);
#729 = DIRECTION('',(-1.,0.,0.));
#730 = ORIENTED_EDGE('',*,*,#615,.T.);
#731 = ORIENTED_EDGE('',*,*,#547,.F.);
#732 = PLANE('',#733);
#733 = AXIS2_PLACEMENT_3D('',#734,#735,#736);
#734 = CARTESIAN_POINT('',(-143.54,-427.3417892456,315.85963901472));
#735 = DIRECTION('',(0.,0.,1.));
#736 = DIRECTION('',(1.,0.,-0.));
#737 = ADVANCED_FACE('',(#738,#749,#752),#755,.T.);
#738 = FACE_BOUND('',#739,.T.);
#739 = EDGE_LOOP('',(#740,#746,#747,#748));
#740 = ORIENTED_EDGE('',*,*,#741,.T.);
#741 = EDGE_CURVE('',#363,#606,#742,.T.);
#742 = LINE('',#743,#744);
#743 = CARTESIAN_POINT('',(-1.91278839112,-422.3417892456,
    185.73059577944));
#744 = VECTOR('',#745,1.);
#745 = DIRECTION('',(-1.,0.,0.));
#746 = ORIENTED_EDGE('',*,*,#605,.T.);
#747 = ORIENTED_EDGE('',*,*,#725,.F.);
#748 = ORIENTED_EDGE('',*,*,#370,.F.);
#749 = FACE_BOUND('',#750,.T.);
#750 = EDGE_LOOP('',(#751));
#751 = ORIENTED_EDGE('',*,*,#708,.T.);
#752 = FACE_BOUND('',#753,.T.);
#753 = EDGE_LOOP('',(#754));
#754 = ORIENTED_EDGE('',*,*,#683,.T.);
#755 = PLANE('',#756);
#756 = AXIS2_PLACEMENT_3D('',#757,#758,#759);
#757 = CARTESIAN_POINT('',(-143.54,-422.3417892456,250.79511739708));
#758 = DIRECTION('',(0.,1.,0.));
#759 = DIRECTION('',(0.,-0.,1.));
#760 = ADVANCED_FACE('',(#761),#785,.T.);
#761 = FACE_BOUND('',#762,.T.);
#762 = EDGE_LOOP('',(#763,#769,#770,#771,#772,#778,#779,#780,#781,#782,
    #783,#784));
#763 = ORIENTED_EDGE('',*,*,#764,.T.);
#764 = EDGE_CURVE('',#40,#631,#765,.T.);
#765 = LINE('',#766,#767);
#766 = CARTESIAN_POINT('',(-1.91278839112,-369.3417892456,
    185.73059577944));
#767 = VECTOR('',#768,1.);
#768 = DIRECTION('',(-1.,0.,0.));
#769 = ORIENTED_EDGE('',*,*,#638,.T.);
#770 = ORIENTED_EDGE('',*,*,#741,.F.);
#771 = ORIENTED_EDGE('',*,*,#362,.T.);
#772 = ORIENTED_EDGE('',*,*,#773,.T.);
#773 = EDGE_CURVE('',#354,#410,#774,.T.);
#774 = LINE('',#775,#776);
#775 = CARTESIAN_POINT('',(-138.14,-422.3417892456,185.73059577944));
#776 = VECTOR('',#777,1.);
#777 = DIRECTION('',(0.,-1.,2.2E-16));
#778 = ORIENTED_EDGE('',*,*,#409,.T.);
#779 = ORIENTED_EDGE('',*,*,#494,.T.);
#780 = ORIENTED_EDGE('',*,*,#278,.F.);
#781 = ORIENTED_EDGE('',*,*,#515,.F.);
#782 = ORIENTED_EDGE('',*,*,#269,.F.);
#783 = ORIENTED_EDGE('',*,*,#140,.T.);
#784 = ORIENTED_EDGE('',*,*,#47,.T.);
#785 = PLANE('',#786);
#786 = AXIS2_PLACEMENT_3D('',#787,#788,#789);
#787 = CARTESIAN_POINT('',(-74.99220905602,-409.165196429,
    185.73059577944));
#788 = DIRECTION('',(0.,2.5E-16,1.));
#789 = DIRECTION('',(0.,1.,-2.5E-16));
#790 = ADVANCED_FACE('',(#791),#801,.T.);
#791 = FACE_BOUND('',#792,.T.);
#792 = EDGE_LOOP('',(#793,#794));
#793 = ORIENTED_EDGE('',*,*,#773,.F.);
#794 = ORIENTED_EDGE('',*,*,#795,.F.);
#795 = EDGE_CURVE('',#410,#354,#796,.T.);
#796 = CIRCLE('',#797,2.25);
#797 = AXIS2_PLACEMENT_3D('',#798,#799,#800);
#798 = CARTESIAN_POINT('',(-138.14,-429.3417892456,187.73059577941));
#799 = DIRECTION('',(1.,0.,0.));
#800 = DIRECTION('',(0.,-1.,0.));
#801 = PLANE('',#802);
#802 = AXIS2_PLACEMENT_3D('',#803,#804,#805);
#803 = CARTESIAN_POINT('',(-138.14,-427.0917892456,187.73059577944));
#804 = DIRECTION('',(-1.,0.,0.));
#805 = DIRECTION('',(0.,-1.,0.));
#806 = ADVANCED_FACE('',(#807),#818,.T.);
#807 = FACE_BOUND('',#808,.T.);
#808 = EDGE_LOOP('',(#809,#815,#816,#817));
#809 = ORIENTED_EDGE('',*,*,#810,.T.);
#810 = EDGE_CURVE('',#32,#623,#811,.T.);
#811 = LINE('',#812,#813);
#812 = CARTESIAN_POINT('',(-1.91278839112,-369.3417892456,
    182.73059577944));
#813 = VECTOR('',#814,1.);
#814 = DIRECTION('',(-1.,0.,0.));
#815 = ORIENTED_EDGE('',*,*,#630,.T.);
#816 = ORIENTED_EDGE('',*,*,#764,.F.);
#817 = ORIENTED_EDGE('',*,*,#39,.T.);
#818 = PLANE('',#819);
#819 = AXIS2_PLACEMENT_3D('',#820,#821,#822);
#820 = CARTESIAN_POINT('',(-74.92639419556,-369.3417892456,
    184.23059577944));
#821 = DIRECTION('',(0.,1.,0.));
#822 = DIRECTION('',(0.,-0.,1.));
#823 = ADVANCED_FACE('',(#824),#830,.T.);
#824 = FACE_BOUND('',#825,.T.);
#825 = EDGE_LOOP('',(#826,#827,#828,#829));
#826 = ORIENTED_EDGE('',*,*,#563,.T.);
#827 = ORIENTED_EDGE('',*,*,#622,.F.);
#828 = ORIENTED_EDGE('',*,*,#810,.F.);
#829 = ORIENTED_EDGE('',*,*,#31,.F.);
#830 = PLANE('',#831);
#831 = AXIS2_PLACEMENT_3D('',#832,#833,#834);
#832 = CARTESIAN_POINT('',(-74.92639419556,-412.5789103647,
    182.73059577944));
#833 = DIRECTION('',(0.,3.3E-16,-1.));
#834 = DIRECTION('',(0.,-1.,-3.3E-16));
#835 = ADVANCED_FACE('',(#836),#849,.F.);
#836 = FACE_BOUND('',#837,.T.);
#837 = EDGE_LOOP('',(#838,#839,#840,#845,#846,#847,#848));
#838 = ORIENTED_EDGE('',*,*,#353,.T.);
#839 = ORIENTED_EDGE('',*,*,#342,.T.);
#840 = ORIENTED_EDGE('',*,*,#841,.F.);
#841 = EDGE_CURVE('',#658,#345,#842,.T.);
#842 = B_SPLINE_CURVE_WITH_KNOTS('',1,(#843,#844),.UNSPECIFIED.,.F.,.F.,
  (2,2),(-147.0272116088,-136.2272116088),.PIECEWISE_BEZIER_KNOTS.);
#843 = CARTESIAN_POINT('',(-148.94,-431.5917892456,187.73059577941));
#844 = CARTESIAN_POINT('',(-138.14,-431.5917892456,187.73059577941));
#845 = ORIENTED_EDGE('',*,*,#657,.F.);
#846 = ORIENTED_EDGE('',*,*,#841,.T.);
#847 = ORIENTED_EDGE('',*,*,#417,.T.);
#848 = ORIENTED_EDGE('',*,*,#795,.T.);
#849 = CYLINDRICAL_SURFACE('',#850,2.25);
#850 = AXIS2_PLACEMENT_3D('',#851,#852,#853);
#851 = CARTESIAN_POINT('',(-1.91278839112,-429.3417892456,
    187.73059577941));
#852 = DIRECTION('',(1.,0.,0.));
#853 = DIRECTION('',(0.,-1.,0.));
#854 = ADVANCED_FACE('',(#855),#865,.F.);
#855 = FACE_BOUND('',#856,.T.);
#856 = EDGE_LOOP('',(#857,#858,#863,#864));
#857 = ORIENTED_EDGE('',*,*,#646,.F.);
#858 = ORIENTED_EDGE('',*,*,#859,.T.);
#859 = EDGE_CURVE('',#647,#427,#860,.T.);
#860 = B_SPLINE_CURVE_WITH_KNOTS('',1,(#861,#862),.UNSPECIFIED.,.F.,.F.,
  (2,2),(-147.0272116088,-136.2272116088),.PIECEWISE_BEZIER_KNOTS.);
#861 = CARTESIAN_POINT('',(-148.94,-431.5917892456,260.3878164638));
#862 = CARTESIAN_POINT('',(-138.14,-431.5917892456,260.3878164638));
#863 = ORIENTED_EDGE('',*,*,#426,.T.);
#864 = ORIENTED_EDGE('',*,*,#859,.F.);
#865 = CYLINDRICAL_SURFACE('',#866,2.25);
#866 = AXIS2_PLACEMENT_3D('',#867,#868,#869);
#867 = CARTESIAN_POINT('',(-1.91278839112,-429.3417892456,260.3878164638
    ));
#868 = DIRECTION('',(1.,0.,0.));
#869 = DIRECTION('',(0.,-1.,0.));
#870 = ( GEOMETRIC_REPRESENTATION_CONTEXT(3) 
GLOBAL_UNCERTAINTY_ASSIGNED_CONTEXT((#874)) GLOBAL_UNIT_ASSIGNED_CONTEXT
((#871,#872,#873)) REPRESENTATION_CONTEXT('Context #1',
  '3D Context with UNIT and UNCERTAINTY') );
#871 = ( LENGTH_UNIT() NAMED_UNIT(*) SI_UNIT(.MILLI.,.METRE.) );
#872 = ( NAMED_UNIT(*) PLANE_ANGLE_UNIT() SI_UNIT($,.RADIAN.) );
#873 = ( NAMED_UNIT(*) SI_UNIT($,.STERADIAN.) SOLID_ANGLE_UNIT() );
#874 = UNCERTAINTY_MEASURE_WITH_UNIT(LENGTH_MEASURE(2.E-04),#871,
  'distance_accuracy_value','confusion accuracy');
#875 = PRODUCT_RELATED_PRODUCT_CATEGORY('part',$,(#7));
#876 = MECHANICAL_DESIGN_GEOMETRIC_PRESENTATION_REPRESENTATION('',(#877)
  ,#870);
#877 = STYLED_ITEM('color',(#878),#15);
#878 = PRESENTATION_STYLE_ASSIGNMENT((#879,#885));
#879 = SURFACE_STYLE_USAGE(.BOTH.,#880);
#880 = SURFACE_SIDE_STYLE('',(#881));
#881 = SURFACE_STYLE_FILL_AREA(#882);
#882 = FILL_AREA_STYLE('',(#883));
#883 = FILL_AREA_STYLE_COLOUR('',#884);
#884 = COLOUR_RGB('',0.800000010877,0.800000010877,0.901960800373);
#885 = CURVE_STYLE('',#886,POSITIVE_LENGTH_MEASURE(0.1),#887);
#886 = DRAUGHTING_PRE_DEFINED_CURVE_FONT('continuous');
#887 = COLOUR_RGB('',9.803921802644E-02,9.803921802644E-02,
  9.803921802644E-02);
ENDSEC;
END-ISO-10303-21;
